name analog
datacolumns 19
datarows 28
range 0.3155 0.329
endheader
time	ground_force_vx	ground_force_vy	ground_force_vz	ground_force_px	ground_force_py	ground_force_pz	l_ground_force_vx	l_ground_force_vy	l_ground_force_vz	l_ground_force_px	l_ground_force_py	l_ground_force_pz	ground_torque_x	ground_torque_y	ground_torque_z	l_ground_torque_x	l_ground_torque_y	l_ground_torque_z
0.3155	-0.0	-0.0	-0.0	-1.436180830001831	73.93878173828125	-489.860595703125	3.0291380882263184	-75.7925033569336	-487.6149597167969	-0.0	-0.0	-0.0	-0.0	-0.0	-0.0	64075.9296875	36191.8515625	-13192.12890625
0.316	-0.0	-0.0	-0.0	-1.814535140991211	74.39447021484375	-489.15423583984375	3.256597757339477	-75.11141204833984	-488.1139526367188	-0.0	-0.0	-0.0	-0.0	-0.0	-0.0	64047.95703125	36246.3359375	-13255.240234375
0.3165	-0.0	-0.0	-0.0	-1.714922308921814	74.21599578857422	-488.0561218261719	3.3082194328308105	-75.13594818115234	-486.12109375	-0.0	-0.0	-0.0	-0.0	-0.0	-0.0	63802.125	36131.5625	-13149.6826171875
0.317	-0.0	-0.0	-0.0	-1.3381576538085938	74.3940658569336	-486.5650939941406	3.054436683654785	-75.16175842285156	-485.2180480957031	-0.0	-0.0	-0.0	-0.0	-0.0	-0.0	63850.63671875	36309.88671875	-13243.01171875
0.3175	-0.0	-0.0	-0.0	-1.576681137084961	74.17588806152344	-486.3709411621094	3.2198941707611084	-75.1497802734375	-485.859375	-0.0	-0.0	-0.0	-0.0	-0.0	-0.0	63784.4140625	36102.51171875	-13060.927734375
0.318	-0.0	-0.0	-0.0	-2.042286157608032	74.34590911865234	-484.6827392578125	3.092990636825561	-75.53870391845703	-484.8204345703125	-0.0	-0.0	-0.0	-0.0	-0.0	-0.0	63710.57421875	36110.875	-13195.7705078125
0.3185	-0.0	-0.0	-0.0	-1.4462417364120483	73.99922943115234	-484.5628662109375	2.726497173309326	-75.23835754394531	-485.2280883789063	-0.0	-0.0	-0.0	-0.0	-0.0	-0.0	63599.56640625	36042.21875	-13166.2119140625
0.319	-0.0	-0.0	-0.0	-1.565842866897583	74.24562072753906	-483.8196411132813	3.0896472930908203	-75.11180114746094	-484.5307312011719	-0.0	-0.0	-0.0	-0.0	-0.0	-0.0	63517.30078125	36153.2734375	-13158.0517578125
0.3195	-0.0	-0.0	-0.0	-1.6949996948242188	73.81830596923828	-484.8797302246094	3.1204729080200195	-75.51911926269531	-485.0621643066406	-0.0	-0.0	-0.0	-0.0	-0.0	-0.0	63700.9609375	36453.56640625	-13254.818359375
0.32	-0.0	-0.0	-0.0	-1.8423638343811035	73.97824096679688	-482.7611999511719	2.938822031021118	-75.06211853027344	-483.8794250488281	-0.0	-0.0	-0.0	-0.0	-0.0	-0.0	63410.83203125	36228.390625	-13111.7490234375
0.3205	-0.0	-0.0	-0.0	-1.588018536567688	73.74209594726562	-482.2144470214844	3.2374191284179688	-75.29981994628906	-483.39837646484375	-0.0	-0.0	-0.0	-0.0	-0.0	-0.0	63469.22265625	36368.578125	-13150.4912109375
0.321	-0.0	-0.0	-0.0	-1.784210205078125	73.40326690673828	-483.2746887207031	3.05497145652771	-75.42672729492188	-483.68402099609375	-0.0	-0.0	-0.0	-0.0	-0.0	-0.0	63418.59765625	36467.62890625	-13161.8681640625
0.3215	-0.0	-0.0	-0.0	-1.565497875213623	74.03572845458984	-482.5691528320313	3.315190315246582	-75.1012191772461	-482.3313903808594	-0.0	-0.0	-0.0	-0.0	-0.0	-0.0	63168.74609375	36321.62890625	-13148.5546875
0.322	-0.0	-0.0	-0.0	-1.573905110359192	73.84030151367188	-482.0906372070313	3.5657427310943604	-75.2113037109375	-481.6759643554688	-0.0	-0.0	-0.0	-0.0	-0.0	-0.0	62897.6328125	36295.4921875	-13061.5107421875
0.3225	-0.0	-0.0	-0.0	-2.1326911449432373	73.69551849365234	-481.4504699707031	3.5201237201690674	-74.97822570800781	-480.9774169921875	-0.0	-0.0	-0.0	-0.0	-0.0	-0.0	62789.15625	36281.28515625	-13111.4267578125
0.323	-0.0	-0.0	-0.0	-1.4033669233322144	73.71907806396484	-480.0991821289063	3.410075426101685	-74.8084716796875	-479.6638488769531	-0.0	-0.0	-0.0	-0.0	-0.0	-0.0	62813.2734375	36195.72265625	-13134.0693359375
0.3235	-0.0	-0.0	-0.0	-1.7436522245407104	73.21658325195312	-479.5539245605469	3.3918769359588623	-74.70975494384766	-479.1900634765625	-0.0	-0.0	-0.0	-0.0	-0.0	-0.0	62846.625	36408.55859375	-13120.2236328125
0.324	-0.0	-0.0	-0.0	-1.7188668251037598	73.45140075683594	-478.8805236816406	3.5979344844818115	-74.87825775146484	-479.4584655761719	-0.0	-0.0	-0.0	-0.0	-0.0	-0.0	62415.32421875	36413.22265625	-13071.4208984375
0.3245	-0.0	-0.0	-0.0	-2.0691165924072266	73.39498901367188	-477.59857177734375	3.490168571472168	-74.88668823242188	-477.7192993164063	-0.0	-0.0	-0.0	-0.0	-0.0	-0.0	62172.109375	36401.078125	-13200.5078125
0.325	-0.0	-0.0	-0.0	-2.059530735015869	73.0154800415039	-477.6911010742188	3.4697511196136475	-74.44519805908203	-475.6234436035156	-0.0	-0.0	-0.0	-0.0	-0.0	-0.0	62168.69140625	36644.515625	-13170.7666015625
0.3255	-0.0	-0.0	-0.0	-2.6763153076171875	73.08692932128906	-474.6140441894531	3.1836953163146973	-74.51395416259766	-476.2427978515625	-0.0	-0.0	-0.0	-0.0	-0.0	-0.0	62180.08984375	36525.33203125	-13342.43359375
0.326	-0.0	-0.0	-0.0	-2.7729294300079346	72.93086242675781	-475.3801879882813	3.193588256835937	-74.40617370605469	-476.708984375	-0.0	-0.0	-0.0	-0.0	-0.0	-0.0	61910.06640625	36513.0859375	-13223.6455078125
0.3265	-0.0	-0.0	-0.0	-2.4642152786254883	72.84590911865234	-475.70452880859375	2.8686585426330566	-74.40623474121094	-476.6677551269531	-0.0	-0.0	-0.0	-0.0	-0.0	-0.0	62115.7578125	36605.09765625	-13270.24609375
0.327	-0.0	-0.0	-0.0	-3.04744815826416	72.9372329711914	-475.3801879882813	3.2917888164520264	-74.6901626586914	-475.4259643554688	-0.0	-0.0	-0.0	-0.0	-0.0	-0.0	61851.203125	36712.37109375	-13309.2939453125
0.3275	-0.0	-0.0	-0.0	-3.047154188156128	72.74440002441406	-475.788818359375	3.0068230628967285	-74.62022399902344	-474.9197387695313	-0.0	-0.0	-0.0	-0.0	-0.0	-0.0	61730.34765625	36702.71484375	-13279.7646484375
0.328	-0.0	-0.0	-0.0	-3.088083267211914	72.76466369628906	-473.4513244628906	2.945908784866333	-74.37887573242188	-474.5808410644531	-0.0	-0.0	-0.0	-0.0	-0.0	-0.0	61664.51953125	36667.14453125	-13240.7880859375
0.3285	-0.0	-0.0	-0.0	-2.998652458190918	73.27191925048828	-474.6471862792969	2.9183757305145264	-74.52542877197266	-474.6180114746094	-0.0	-0.0	-0.0	-0.0	-0.0	-0.0	61388.1484375	36787.9765625	-13435.2783203125
0.329	-0.0	-0.0	-0.0	-2.7787535190582275	73.22393035888672	-474.15716552734375	2.9095335006713867	-74.34500885009766	-474.4617614746094	-0.0	-0.0	-0.0	-0.0	-0.0	-0.0	61787.6328125	36924.0234375	-13527.2861328125
